<svg id="Capa_1" data-name="Capa 1" xmlns="http://www.w3.org/2000/svg" viewBox="0 0 28 28"><path d="M18.49,14.21l-.6,1s0,.09,0,.14c.19.92.39,1.83.59,2.75a.08.08,0,0,1,0,.08L14,10.54l-.15.25-2.58,4.36a.26.26,0,0,0,0,.19c.2.91.39,1.81.59,2.72a.1.1,0,0,1,0,.1L9.5,14.22l-.25.4L3,24.74c0,.07-.07.13-.15,0A13.58,13.58,0,0,1,.54,19.05a13.13,13.13,0,0,1-.18-2.58A13.67,13.67,0,0,1,10.2,3.72a12.63,12.63,0,0,1,2.65-.49A13.7,13.7,0,0,1,26.2,10.7a13.4,13.4,0,0,1,1.31,4.24,13.11,13.11,0,0,1,.13,2.43,13.63,13.63,0,0,1-2.51,7.38c-.08.1-.1.07-.16,0q-2.43-4-4.87-7.93Z" style="fill:#4580fe"/></svg>