<svg width="150" height="150" viewBox="0 0 150 150" fill="none" xmlns="http://www.w3.org/2000/svg">
<path fill-rule="evenodd" clip-rule="evenodd" d="M106.393 1.44637H71.7857C49.4464 2.62494 40.0714 15.5357 37.5 22.4464C27.75 51.6964 21.4286 89.5714 17.25 116.893L16.9821 118.5L15.5893 131.464C15.4345 133.619 15.597 135.785 16.0714 137.893C18.8036 145.821 27.1071 152.518 45.3214 145.875C62.5179 138.375 82.8214 129.107 103.875 118.661C115.821 111.75 133.393 95.8928 134.304 75.8035C134.304 60.9642 133.607 45.3749 132.589 30.2142C132.589 28.9821 132.589 27.5357 132.321 26.0357C132.321 23.1428 132 20.0357 131.786 17.6785C131.509 16.1855 131.115 14.7167 130.607 13.2857C129.242 10.4065 127.215 7.89111 124.692 5.94517C122.169 3.99923 119.221 2.67793 116.089 2.08923C112.878 1.63263 109.637 1.41774 106.393 1.44637ZM105.107 31.6607C105.093 30.8551 104.767 30.0864 104.198 29.5167C103.628 28.947 102.859 28.6209 102.054 28.6071C92.7331 28.6071 83.7944 32.3096 77.2038 38.9002C70.6133 45.4908 66.9107 54.4295 66.9107 63.7499V75.2678C66.925 80.2506 64.9667 85.0365 61.4634 88.5799C57.9602 92.1233 53.1969 94.1361 48.2143 94.1785C47.3852 94.1784 46.5893 94.504 45.9981 95.0852C45.4068 95.6665 45.0676 96.4567 45.0536 97.2857V107.143C45.0673 107.948 45.3935 108.717 45.9632 109.287C46.5329 109.856 47.3016 110.183 48.1071 110.196C57.409 110.154 66.3146 106.425 72.872 99.8276C79.4294 93.2301 83.1036 84.3019 83.0893 74.9999V63.2678C83.075 58.29 85.0351 53.5097 88.5399 49.9748C92.0446 46.4399 96.808 44.439 101.786 44.4107C102.62 44.3969 103.416 44.0594 104.005 43.4697C104.595 42.8799 104.933 42.0839 104.946 41.2499L105.107 31.6607Z" fill="#1EBFBF"/>
<path d="M102.054 28.6072C102.859 28.621 103.628 28.9471 104.198 29.5168C104.767 30.0865 105.093 30.8552 105.107 31.6607V41.25C105.093 42.084 104.756 42.88 104.166 43.4697C103.576 44.0595 102.78 44.397 101.946 44.4107C99.4681 44.4037 97.0128 44.8866 94.7218 45.8318C92.4307 46.7769 90.3491 48.1657 88.5966 49.9181C86.8442 51.6706 85.4555 53.7522 84.5103 56.0432C83.5651 58.3343 83.0822 60.7896 83.0893 63.2679V75C83.0332 84.2371 79.3426 93.0807 72.8159 99.6174C66.2892 106.154 57.4513 109.858 48.2143 109.929C47.4068 109.989 46.6079 109.731 45.9875 109.211C45.3672 108.69 44.9744 107.948 44.8929 107.143V97.2857C44.8995 96.8613 44.9916 96.4426 45.1636 96.0545C45.3355 95.6665 45.5839 95.317 45.8939 95.027C46.2039 94.737 46.5691 94.5125 46.9678 94.3667C47.3664 94.2209 47.7904 94.157 48.2143 94.1786C50.6952 94.1786 53.1516 93.6891 55.443 92.7381C57.7343 91.7871 59.8155 90.3933 61.5673 88.6365C63.319 86.8798 64.7069 84.7947 65.6514 82.5007C66.5959 80.2066 67.0785 77.7487 67.0714 75.2679V63.75C67.0714 54.4296 70.774 45.4908 77.3645 38.9003C83.9551 32.3097 92.8938 28.6072 102.214 28.6072H102.054Z" fill="white"/>
</svg>
