<svg id="HMA" xmlns="http://www.w3.org/2000/svg" viewBox="0 0 28 28"><path d="M19.73,17.93h-3.4c-.1,0-.1,0-.1-.1V14.26c0-.11,0-.11.11-.11H22a1.26,1.26,0,0,0,1.3-1,1.89,1.89,0,0,0-.13-1.34,1.24,1.24,0,0,0-.76-.67,1.2,1.2,0,0,0-.38,0H16.38c-.17,0-.15,0-.15-.15V7.48c0-.09,0-.09.1-.09H22.6a4.55,4.55,0,0,1,1.75.3,3.92,3.92,0,0,1,1.72,1.37,5.36,5.36,0,0,1,1,2.46A7.07,7.07,0,0,1,27,14.45a5.08,5.08,0,0,1-1.49,2.48,4,4,0,0,1-2.15,1,5.85,5.85,0,0,1-.73,0Z" style="fill:#010101"/><path d="M8.21,21.05c-.66.12-1.33.23-2,.39a10.76,10.76,0,0,0-1.94.64,3.87,3.87,0,0,0-1.08.66,1.81,1.81,0,0,0-.29.33.88.88,0,0,0,0,1,1.69,1.69,0,0,0,.47.49,5.2,5.2,0,0,0,1.3.68A14.23,14.23,0,0,0,7,25.86c.61.12,1.22.22,1.83.29s1.08.11,1.61.15c1.1.08,2.19.09,3.29.07q1,0,2.1-.12a25.77,25.77,0,0,0,2.64-.36,13.79,13.79,0,0,0,2.67-.76,4.27,4.27,0,0,0,1-.54,2,2,0,0,0,.43-.39.92.92,0,0,0,0-1.29,2.75,2.75,0,0,0-.71-.56,7.57,7.57,0,0,0-1.64-.68A17.37,17.37,0,0,0,18,21.15l-.36-.07a3.44,3.44,0,0,1,.45.05,26.67,26.67,0,0,1,2.69.54,13.16,13.16,0,0,1,2.11.73,5.52,5.52,0,0,1,1.29.79,1.94,1.94,0,0,1,.49.58,1.2,1.2,0,0,1,0,1.2,2.25,2.25,0,0,1-.59.68,6.22,6.22,0,0,1-1.42.81,15,15,0,0,1-2.7.83c-.79.18-1.59.31-2.39.42s-1.54.17-2.32.21C14.11,28,13,28,11.9,28c-.59,0-1.17,0-1.76-.08a31.73,31.73,0,0,1-3.22-.37A19.94,19.94,0,0,1,3.6,26.7,8.51,8.51,0,0,1,2,26a3.37,3.37,0,0,1-.84-.71,1.35,1.35,0,0,1-.35-.85,1.19,1.19,0,0,1,.25-.75,2.93,2.93,0,0,1,.88-.8A8.79,8.79,0,0,1,3.87,22a18.85,18.85,0,0,1,2.76-.68c.42-.08.85-.15,1.27-.2Z" style="fill:#70bc45"/><path d="M14.44,14.26a.34.34,0,0,1,0,.14V24.71c0,.11,0,.11-.12.11h-4s-.05,0-.05-.05v-.1c0-1.9,0-3.8,0-5.71a5,5,0,0,1,.47-2.21,4.34,4.34,0,0,1,2.59-2.25A5.56,5.56,0,0,1,14.44,14.26Z" style="fill:#010101"/><rect x="1.86" width="1.37" height="1.21" style="fill:#70bc45"/><rect x="3.89" y="1.61" width="1.37" height="1.21" style="fill:#70bc45"/><rect x="6.57" y="1.51" width="1.86" height="1.64" style="fill:#70bc45"/><rect x="3.81" y="3.86" width="1.86" height="1.64" style="fill:#70bc45"/><rect x="6.65" y="4" width="2.55" height="2.27" style="fill:#70bc45"/><rect x="10.67" y="4.03" width="2.47" height="2.19" style="fill:#70bc45"/><rect x="6.68" y="7.39" width="2.49" height="2.19" style="fill:#70bc45"/><rect x="10.29" y="7.39" width="4.16" height="3.68" style="fill:#70bc45"/></svg>