<svg width="16" height="16" viewBox="0 0 16 16" fill="none" xmlns="http://www.w3.org/2000/svg">
<g clip-path="url(#clip0_842_55786)">
<path d="M8 15C11.866 15 15 11.866 15 8C15 4.13401 11.866 1 8 1C4.13401 1 1 4.13401 1 8C1 11.866 4.13401 15 8 15Z" fill="#6DA544"/>
<path d="M4.95654 9.36914C4.95654 9.87339 5.36533 10.2822 5.86958 10.2822H8.60871C8.60871 10.7024 8.94936 11.043 9.36958 11.043H10.2826C10.7028 11.043 11.0435 10.7024 11.0435 10.2822V9.36914H4.95654Z" fill="#F0F0F0"/>
<path d="M11.1194 4.95605V7.08649C11.1194 7.42213 10.8464 7.69519 10.5107 7.69519V8.60822C11.3498 8.60822 12.0325 7.92556 12.0325 7.08649V4.95605H11.1194Z" fill="#F0F0F0"/>
<path d="M4.57598 7.08649C4.57598 7.42213 4.30293 7.69519 3.96729 7.69519V8.60822C4.80638 8.60822 5.48902 7.92556 5.48902 7.08649V4.95605H4.57598V7.08649Z" fill="#F0F0F0"/>
<path d="M9.75 4.95605H10.663V7.08649H9.75V4.95605Z" fill="#F0F0F0"/>
<path d="M8.38008 6.17345C8.38008 6.25737 8.3118 6.32562 8.22791 6.32562C8.14402 6.32562 8.07575 6.25734 8.07575 6.17345V4.95605H7.16271V6.17345C7.16271 6.25737 7.09443 6.32562 7.01054 6.32562C6.92665 6.32562 6.85837 6.25734 6.85837 6.17345V4.95605H5.94531V6.17345C5.94531 6.76082 6.42317 7.23868 7.01054 7.23868C7.23676 7.23868 7.44654 7.16759 7.61924 7.04684C7.79192 7.16756 8.00173 7.23868 8.22794 7.23868C8.2735 7.23868 8.31828 7.23548 8.36234 7.22988C8.29764 7.49645 8.05756 7.69519 7.77141 7.69519V8.60822C8.61051 8.60822 9.29314 7.92556 9.29314 7.08649V6.17345V4.95605H8.38011V6.17345H8.38008Z" fill="#F0F0F0"/>
<path d="M5.94531 7.69531H7.31488V8.60835H5.94531V7.69531Z" fill="#F0F0F0"/>
</g>
<defs>
<clipPath id="clip0_842_55786">
<rect width="14" height="14" fill="white" transform="translate(1 1)"/>
</clipPath>
</defs>
</svg>
