<svg width="16" height="16" viewBox="0 0 16 16" fill="none" xmlns="http://www.w3.org/2000/svg">
<g clip-path="url(#clip0_842_55520)">
<path d="M7.9997 15C11.8657 15 14.9997 11.866 14.9997 8C14.9997 4.13401 11.8657 1 7.9997 1C4.1337 1 0.999695 4.13401 0.999695 8C0.999695 11.866 4.1337 15 7.9997 15Z" fill="#6DA544"/>
<path d="M7.99995 3.73926L13.7825 8.00012L7.99995 12.261L2.21735 8.00012L7.99995 3.73926Z" fill="#FFDA44"/>
<path d="M7.99998 10.435C9.34467 10.435 10.4348 9.34488 10.4348 8.0002C10.4348 6.65551 9.34467 5.56543 7.99998 5.56543C6.6553 5.56543 5.56522 6.65551 5.56522 8.0002C5.56522 9.34488 6.6553 10.435 7.99998 10.435Z" fill="#F0F0F0"/>
<path d="M6.78255 7.84766C6.35916 7.84766 5.95057 7.91205 5.56595 8.03154C5.58298 9.36154 6.66591 10.4346 7.99995 10.4346C8.82486 10.4346 9.55341 10.024 9.99383 9.39643C9.24032 8.45316 8.08092 7.84766 6.78255 7.84766Z" fill="#0052B4"/>
<path d="M10.3896 8.46668C10.4189 8.31564 10.4347 8.1598 10.4347 8.0002C10.4347 6.65549 9.34466 5.56543 7.99997 5.56543C6.99662 5.56543 6.13529 6.17249 5.76254 7.03923C6.09203 6.97095 6.43318 6.935 6.7826 6.935C8.19674 6.93497 9.47604 7.5228 10.3896 8.46668Z" fill="#0052B4"/>
</g>
<defs>
<clipPath id="clip0_842_55520">
<rect width="14" height="14" fill="white" transform="translate(1 1)"/>
</clipPath>
</defs>
</svg>
