<svg width="16" height="16" viewBox="0 0 16 16" fill="none" xmlns="http://www.w3.org/2000/svg">
<g clip-path="url(#clip0_842_55524)">
<path d="M15 7.99987C15 7.14363 14.846 6.3234 14.5646 5.56511L8 5.26074L1.43539 5.56508C1.15403 6.3234 1 7.14363 1 7.99987C1 8.85612 1.15403 9.67635 1.43539 10.4346L8 10.739L14.5646 10.4347C14.846 9.67635 15 8.85612 15 7.99987Z" fill="#496E2D"/>
<path d="M8.00003 14.9998C11.0098 14.9998 13.5756 13.1002 14.5646 10.4346H1.43542C2.42448 13.1002 4.99028 14.9998 8.00003 14.9998Z" fill="#D80027"/>
<path d="M1.43542 5.56523H14.5647C13.5756 2.89962 11.0098 1 8.00003 1C4.99028 1 2.42448 2.89962 1.43542 5.56523Z" fill="#F0F0F0"/>
</g>
<defs>
<clipPath id="clip0_842_55524">
<rect width="14" height="14" fill="white" transform="translate(1 1)"/>
</clipPath>
</defs>
</svg>
