<svg width="16" height="16" viewBox="0 0 16 16" fill="none" xmlns="http://www.w3.org/2000/svg">
<g clip-path="url(#clip0_842_55550)">
<path d="M7.99992 15C11.8659 15 14.9999 11.866 14.9999 8C14.9999 4.13401 11.8659 1 7.99992 1C4.13392 1 0.999916 4.13401 0.999916 8C0.999916 11.866 4.13392 15 7.99992 15Z" fill="#D80027"/>
<path d="M4.83087 5.25977L5.43517 7.11914H7.39025L5.80978 8.27031L6.41408 10.1297L4.83087 8.98125L3.24767 10.1297L3.8547 8.27031L2.2715 7.11914H4.22658L4.83087 5.25977Z" fill="#FFDA44"/>
<path d="M9.29885 11.8416L8.83674 11.2729L8.15315 11.5381L8.54963 10.9229L8.08752 10.3514L8.79573 10.54L9.19495 9.9248L9.23323 10.6576L9.94416 10.8463L9.25784 11.1088L9.29885 11.8416Z" fill="#FFDA44"/>
<path d="M10.2176 10.1736L10.4363 9.47363L9.83752 9.0498L10.5703 9.03887L10.7863 8.33887L11.0242 9.0334L11.757 9.0252L11.1692 9.4627L11.4043 10.1572L10.8055 9.7334L10.2176 10.1736Z" fill="#FFDA44"/>
<path d="M11.4563 6.1373L11.1336 6.79629L11.6586 7.30762L10.934 7.20371L10.6114 7.85996L10.4856 7.13809L9.75824 7.03418L10.409 6.69238L10.2832 5.96777L10.8082 6.4791L11.4563 6.1373Z" fill="#FFDA44"/>
<path d="M9.318 4.1416L9.26331 4.87168L9.94417 5.14785L9.2305 5.32285L9.17854 6.05566L8.793 5.43223L8.07932 5.60723L8.55237 5.04668L8.16409 4.42598L8.84495 4.70215L9.318 4.1416Z" fill="#FFDA44"/>
</g>
<defs>
<clipPath id="clip0_842_55550">
<rect width="14" height="14" fill="white" transform="translate(1 1)"/>
</clipPath>
</defs>
</svg>
