<svg width="16" height="16" viewBox="0 0 16 16" fill="none" xmlns="http://www.w3.org/2000/svg">
<g clip-path="url(#clip0_842_55566)">
<path d="M15 7.99987C15 7.14363 14.846 6.3234 14.5646 5.56511L8 5.26074L1.43539 5.56508C1.15403 6.3234 1 7.14363 1 7.99987C1 8.85612 1.15403 9.67635 1.43539 10.4346L8 10.739L14.5646 10.4347C14.846 9.67635 15 8.85612 15 7.99987Z" fill="#F0F0F0"/>
<path d="M7.99997 14.9998C11.0097 14.9998 13.5755 13.1002 14.5646 10.4346H1.43536C2.42441 13.1002 4.99021 14.9998 7.99997 14.9998Z" fill="#0052B4"/>
<path d="M1.43536 5.56523H14.5646C13.5755 2.89963 11.0097 1 7.99997 1C4.99021 1 2.42441 2.89963 1.43536 5.56523Z" fill="#D80027"/>
<path d="M9.82607 5.86972H8.60867L8.81159 4.34796L9.62315 3.73926L10.4347 4.34796V5.56535L9.82607 5.86972Z" fill="#338AF3"/>
<path d="M6.17386 5.86972H7.39126L7.18834 4.34796L6.37675 3.73926L5.56519 4.34796V5.56535L6.17386 5.86972Z" fill="#338AF3"/>
<path d="M8.81162 5.86972H7.18839V4.34796L8 3.73926L8.81162 4.34796V5.86972Z" fill="#0052B4"/>
<path d="M5.56519 5.56543V8.91323C5.56519 9.71039 5.95024 10.4193 6.54415 10.8637L6.97024 10.7571L7.50793 11.298C7.66694 11.3308 7.83146 11.348 7.99998 11.348C8.1676 11.348 8.33131 11.331 8.48946 11.2986L9.10325 10.7875L9.45576 10.8627C10.0494 10.4183 10.4348 9.71017 10.4348 8.91323V5.56543H5.56519Z" fill="#F0F0F0"/>
<path d="M5.56519 5.56543H6.53909V6.53933H5.56519V5.56543Z" fill="#D80027"/>
<path d="M7.51297 5.56543H8.48687V6.53933H7.51297V5.56543Z" fill="#D80027"/>
<path d="M9.46082 5.56543H10.4347V6.53933H9.46082V5.56543Z" fill="#D80027"/>
<path d="M6.53909 6.53906H7.513V7.51296H6.53909V6.53906Z" fill="#D80027"/>
<path d="M8.48694 6.53906H9.46084V7.51296H8.48694V6.53906Z" fill="#D80027"/>
<path d="M5.56519 7.5127H6.53909V8.4866H5.56519V7.5127Z" fill="#D80027"/>
<path d="M6.53909 8.4873H7.513V9.46121H6.53909V8.4873Z" fill="#D80027"/>
<path d="M7.51297 7.5127H8.48687V8.4866H7.51297V7.5127Z" fill="#D80027"/>
<path d="M9.46082 7.5127H10.4347V8.4866H9.46082V7.5127Z" fill="#D80027"/>
<path d="M8.48694 8.4873H9.46084V9.46121H8.48694V8.4873Z" fill="#D80027"/>
<path d="M7.51297 9.46094H8.48687V10.4348H7.51297V9.46094Z" fill="#D80027"/>
<path d="M6.53909 9.46094H5.62802C5.71158 9.82297 5.87587 10.1542 6.10112 10.4348H6.53909V9.46094Z" fill="#D80027"/>
<path d="M9.46082 10.4348H9.89875C10.1241 10.1542 10.2883 9.82294 10.3719 9.46094H9.46082V10.4348Z" fill="#D80027"/>
<path d="M6.53909 10.4346V10.8595C6.82235 11.0727 7.15337 11.2255 7.513 11.2988V10.4346H6.53909Z" fill="#D80027"/>
<path d="M8.48694 10.4346V11.2988C8.84659 11.2255 9.17759 11.0727 9.46084 10.8595V10.4346H8.48694Z" fill="#D80027"/>
</g>
<defs>
<clipPath id="clip0_842_55566">
<rect width="14" height="14" fill="white" transform="translate(1 1)"/>
</clipPath>
</defs>
</svg>
