<svg width="16" height="16" viewBox="0 0 16 16" fill="none" xmlns="http://www.w3.org/2000/svg">
<path d="M7.9997 15C11.8657 15 14.9997 11.866 14.9997 8C14.9997 4.13401 11.8657 1 7.9997 1C4.1337 1 0.999695 4.13401 0.999695 8C0.999695 11.866 4.1337 15 7.9997 15Z" fill="#F0F0F0"/>
<path d="M7.39127 8C7.39127 8 3.0543 12.9507 3.0502 12.9497C4.31693 14.2165 6.06695 15 7.99997 15C11.8659 15 15 11.866 15 8H7.39127Z" fill="#D80027"/>
<path d="M3.05022 3.0498C0.316553 5.78347 0.316553 10.2156 3.05022 12.9493C4.17987 11.8197 5.26632 10.7332 7.99998 7.99957L3.05022 3.0498Z" fill="#0052B4"/>
</svg>
