<svg width="16" height="16" viewBox="0 0 16 16" fill="none" xmlns="http://www.w3.org/2000/svg">
<g clip-path="url(#clip0_842_55580)">
<path d="M8 15C11.866 15 15 11.866 15 8C15 4.13401 11.866 1 8 1C4.13401 1 1 4.13401 1 8C1 11.866 4.13401 15 8 15Z" fill="#F0F0F0"/>
<path d="M6.4783 7.08696H14.9408C14.4933 3.6524 11.5565 1 8.00001 1C7.47733 1 6.96827 1.05778 6.47827 1.16639V7.08696H6.4783Z" fill="#D80027"/>
<path d="M4.65218 7.08737V1.85156C2.7301 2.9003 1.35411 4.82396 1.05927 7.0874H4.65218V7.08737Z" fill="#D80027"/>
<path d="M4.65215 8.91309H1.05927C1.35411 11.1765 2.7301 13.1002 4.65218 14.1489L4.65215 8.91309Z" fill="#D80027"/>
<path d="M6.47827 8.91311V14.8337C6.96827 14.9423 7.47733 15.0001 8.00001 15.0001C11.5565 15.0001 14.4933 12.3477 14.9408 8.91309H6.47827V8.91311Z" fill="#D80027"/>
</g>
<defs>
<clipPath id="clip0_842_55580">
<rect width="14" height="14" fill="white" transform="translate(1 1)"/>
</clipPath>
</defs>
</svg>
