<svg width="16" height="16" viewBox="0 0 16 16" fill="none" xmlns="http://www.w3.org/2000/svg">
<g clip-path="url(#clip0_842_55730)">
<path d="M7.99976 15C11.8657 15 14.9998 11.866 14.9998 8C14.9998 4.13401 11.8657 1 7.99976 1C4.13376 1 0.999756 4.13401 0.999756 8C0.999756 11.866 4.13376 15 7.99976 15Z" fill="#F0F0F0"/>
<path d="M7.99991 1C4.99015 1 2.42435 2.89962 1.4353 5.56523H14.5645C13.5755 2.89962 11.0097 1 7.99991 1Z" fill="#A2001D"/>
<path d="M7.99991 14.9998C11.0097 14.9998 13.5755 13.1002 14.5645 10.4346H1.4353C2.42435 13.1002 4.99015 14.9998 7.99991 14.9998Z" fill="#0052B4"/>
</g>
<defs>
<clipPath id="clip0_842_55730">
<rect width="14" height="14" fill="white" transform="translate(1 1)"/>
</clipPath>
</defs>
</svg>
