<svg width="16" height="16" viewBox="0 0 16 16" fill="none" xmlns="http://www.w3.org/2000/svg">
<g clip-path="url(#clip0_842_55860)">
<path d="M8.00049 15C11.8665 15 15.0005 11.866 15.0005 8C15.0005 4.13401 11.8665 1 8.00049 1C4.1345 1 1.00049 4.13401 1.00049 8C1.00049 11.866 4.1345 15 8.00049 15Z" fill="#F0F0F0"/>
<path d="M2.4471 3.73828C1.89724 4.45368 1.48263 5.27823 1.24121 6.17398H4.8828L2.4471 3.73828Z" fill="#0052B4"/>
<path d="M14.7587 6.17395C14.5173 5.27823 14.1027 4.45368 13.5528 3.73828L11.1172 6.17395H14.7587Z" fill="#0052B4"/>
<path d="M1.24121 9.82617C1.48266 10.7219 1.89727 11.5464 2.4471 12.2618L4.88272 9.82617H1.24121Z" fill="#0052B4"/>
<path d="M12.2618 2.44712C11.5465 1.89727 10.7219 1.48266 9.82617 1.24121V4.88277L12.2618 2.44712Z" fill="#0052B4"/>
<path d="M3.73828 13.5528C4.45368 14.1027 5.27823 14.5173 6.17395 14.7587V11.1172L3.73828 13.5528Z" fill="#0052B4"/>
<path d="M6.17393 1.24121C5.2782 1.48266 4.45365 1.89727 3.73828 2.4471L6.17393 4.88274V1.24121Z" fill="#0052B4"/>
<path d="M9.82617 14.7587C10.7219 14.5173 11.5465 14.1027 12.2618 13.5528L9.82617 11.1172V14.7587Z" fill="#0052B4"/>
<path d="M11.1172 9.82617L13.5528 12.2618C14.1027 11.5465 14.5173 10.7219 14.7587 9.82617H11.1172Z" fill="#0052B4"/>
<path d="M14.9412 7.08696H8.91358H8.91355V1.05925C8.61466 1.02034 8.30994 1 8.00049 1C7.69099 1 7.38632 1.02034 7.08745 1.05925V7.08691V7.08694H1.05974C1.02083 7.38583 1.00049 7.69055 1.00049 8C1.00049 8.3095 1.02083 8.61417 1.05974 8.91303H7.0874H7.08743V14.9407C7.38632 14.9797 7.69099 15 8.00049 15C8.30994 15 8.61466 14.9797 8.91352 14.9407V8.91309V8.91306H14.9412C14.9801 8.61417 15.0005 8.3095 15.0005 8C15.0005 7.69055 14.9801 7.38583 14.9412 7.08696Z" fill="#D80027"/>
<path d="M9.82617 9.8262L12.9498 12.9498C13.0935 12.8062 13.2305 12.6561 13.3613 12.5004L10.687 9.82617H9.82617V9.8262Z" fill="#D80027"/>
<path d="M6.17396 9.82617H6.1739L3.05029 12.9498C3.1939 13.0934 3.34405 13.2305 3.49969 13.3613L6.17396 10.6869V9.82617Z" fill="#D80027"/>
<path d="M6.17427 6.17353V6.17347L3.05063 3.0498C2.90696 3.19341 2.76992 3.34356 2.63916 3.4992L5.31346 6.1735H6.17427V6.17353Z" fill="#D80027"/>
<path d="M9.82617 6.17381L12.9498 3.05011C12.8062 2.90645 12.6561 2.7694 12.5004 2.63867L9.82617 5.31297V6.17381Z" fill="#D80027"/>
</g>
<defs>
<clipPath id="clip0_842_55860">
<rect width="14" height="14" fill="white" transform="translate(1 1)"/>
</clipPath>
</defs>
</svg>
