<svg width="16" height="16" viewBox="0 0 16 16" fill="none" xmlns="http://www.w3.org/2000/svg">
<g clip-path="url(#clip0_842_55604)">
<path d="M8 15C11.866 15 15 11.866 15 8C15 4.13401 11.866 1 8 1C4.13401 1 1 4.13401 1 8C1 11.866 4.13401 15 8 15Z" fill="#F0F0F0"/>
<path d="M14.9407 7.08659H6.47829H6.47827V1.16602C5.83137 1.30946 5.21807 1.54196 4.65217 1.85076V7.08654V7.08657H1.05925C1.02029 7.38546 1 7.69018 1 7.99963C1 8.30908 1.02029 8.6138 1.05925 8.91266H4.65214H4.65217V14.1485C5.21807 14.4572 5.83137 14.6898 6.47827 14.8332V8.91275V8.91269H14.9407C14.9797 8.6138 15 8.30908 15 7.99963C15 7.69018 14.9797 7.38546 14.9407 7.08659Z" fill="#0052B4"/>
</g>
<defs>
<clipPath id="clip0_842_55604">
<rect width="14" height="14" fill="white" transform="translate(1 1)"/>
</clipPath>
</defs>
</svg>
