<svg width="16" height="16" viewBox="0 0 16 16" fill="none" xmlns="http://www.w3.org/2000/svg">
<g clip-path="url(#clip0_842_55606)">
<path d="M7.9997 15C11.8657 15 14.9997 11.866 14.9997 8C14.9997 4.13401 11.8657 1 7.9997 1C4.1337 1 0.999695 4.13401 0.999695 8C0.999695 11.866 4.1337 15 7.9997 15Z" fill="#F0F0F0"/>
<path d="M15 8.00015C15 4.9904 13.1004 2.4246 10.4348 1.43555V14.5648C13.1004 13.5757 15 11.0099 15 8.00015Z" fill="#D80027"/>
<path d="M1 8.00015C1 11.0099 2.89965 13.5757 5.56523 14.5648V1.43555C2.89965 2.4246 1 4.9904 1 8.00015Z" fill="#0052B4"/>
</g>
<defs>
<clipPath id="clip0_842_55606">
<rect width="14" height="14" fill="white" transform="translate(1 1)"/>
</clipPath>
</defs>
</svg>
