<svg width="16" height="16" viewBox="0 0 16 16" fill="none" xmlns="http://www.w3.org/2000/svg">
<g clip-path="url(#clip0_842_55614)">
<path d="M1.43542 10.4348C2.42448 13.1004 4.99028 15.0001 8.00003 15.0001C11.0098 15.0001 13.5756 13.1004 14.5646 10.4348L8.00003 9.82617L1.43542 10.4348Z" fill="#FFDA44"/>
<path d="M8.00003 1C4.99028 1 2.42448 2.89962 1.43542 5.56523L8.00003 6.1739L14.5646 5.5652C13.5756 2.89962 11.0098 1 8.00003 1Z" fill="black"/>
<path d="M1.43539 5.56543C1.15403 6.32375 1 7.14396 1 8.0002C1 8.85644 1.15403 9.67664 1.43539 10.435H14.5646C14.846 9.67664 15 8.85644 15 8.0002C15 7.14396 14.846 6.32375 14.5646 5.56543H1.43539Z" fill="#D80027"/>
</g>
<defs>
<clipPath id="clip0_842_55614">
<rect width="14" height="14" fill="white" transform="translate(1 1)"/>
</clipPath>
</defs>
</svg>
