<svg width="16" height="16" viewBox="0 0 16 16" fill="none" xmlns="http://www.w3.org/2000/svg">
<g clip-path="url(#clip0_842_55618)">
<path d="M8 15C11.866 15 15 11.866 15 8C15 4.13401 11.866 1 8 1C4.13401 1 1 4.13401 1 8C1 11.866 4.13401 15 8 15Z" fill="#F0F0F0"/>
<path d="M8 6.17375H14.7589C14.5833 5.52259 14.3166 4.90897 13.9726 4.34766H8V6.17375Z" fill="#338AF3"/>
<path d="M3.64263 13.4784H12.3574C12.9963 12.9696 13.5441 12.3516 13.9726 11.6523H2.02747C2.45597 12.3516 3.00383 12.9696 3.64263 13.4784Z" fill="#338AF3"/>
<path d="M3.43482 2.69336C2.8845 3.16725 2.40875 3.72531 2.02747 4.34755H3.43482V2.69336Z" fill="#338AF3"/>
<path d="M8 7.99993C8 7.28691 8 6.69019 8 6.17383H5.26087V7.99993H3.43477V6.17383H1.24114C1.08422 6.75609 1 7.36809 1 7.99993C1 8.63176 1.08422 9.24377 1.24114 9.82602H14.7589C14.9158 9.24377 15 8.63176 15 7.99993H8Z" fill="#338AF3"/>
<path d="M8 1C7.02795 1 6.10223 1.19832 5.26086 1.55639V4.34783H8C8 3.71039 8 3.16825 8 2.52173H12.3574C11.1616 1.56941 9.64743 1 8 1Z" fill="#338AF3"/>
</g>
<defs>
<clipPath id="clip0_842_55618">
<rect width="14" height="14" fill="white" transform="translate(1 1)"/>
</clipPath>
</defs>
</svg>
