<svg width="16" height="16" viewBox="0 0 16 16" fill="none" xmlns="http://www.w3.org/2000/svg">
<g clip-path="url(#clip0_842_55648)">
<path d="M7.99976 15C11.8658 15 14.9998 11.866 14.9998 8C14.9998 4.13401 11.8658 1 7.99976 1C4.13376 1 0.999756 4.13401 0.999756 8C0.999756 11.866 4.13376 15 7.99976 15Z" fill="#F0F0F0"/>
<path d="M10.6357 6.47779H8.87856L8 4.95605L7.12148 6.47779H5.36426L6.24292 7.99952L5.36426 9.52126H7.12148L8 11.043L8.87856 9.52126H10.6357L9.75709 7.99952L10.6357 6.47779ZM9.0794 7.99952L8.53974 8.93435H7.46035L6.92061 7.99952L7.46032 7.0647H8.53972L9.0794 7.99952ZM8 6.12984L8.20087 6.47776H7.79919L8 6.12984ZM6.38087 7.0647H6.78261L6.58174 7.41262L6.38087 7.0647ZM6.38087 8.93435L6.58177 8.58643L6.78263 8.93435H6.38087ZM8 9.86918L7.79916 9.52126H8.20087L8 9.86918ZM9.61914 8.93435H9.2174L9.4183 8.58643L9.61914 8.93435ZM9.2174 7.0647H9.61914L9.41827 7.41262L9.2174 7.0647Z" fill="#0052B4"/>
<path d="M12.3573 2.52148H3.64251C3.00368 3.0303 2.45582 3.64832 2.02734 4.34758H13.9725C13.544 3.64835 12.9962 3.0303 12.3573 2.52148Z" fill="#0052B4"/>
<path d="M3.64251 13.4784H12.3573C12.9962 12.9696 13.544 12.3516 13.9725 11.6523H2.02734C2.45585 12.3516 3.00371 12.9696 3.64251 13.4784Z" fill="#0052B4"/>
</g>
<defs>
<clipPath id="clip0_842_55648">
<rect width="14" height="14" fill="white" transform="translate(1 1)"/>
</clipPath>
</defs>
</svg>
