<svg width="16" height="16" viewBox="0 0 16 16" fill="none" xmlns="http://www.w3.org/2000/svg">
<g clip-path="url(#clip0_842_55634)">
<path d="M1.43539 5.56475C1.15403 6.32311 1 7.14328 1 7.99952C1 8.85577 1.15403 9.676 1.43539 10.4343L8 11.043L14.5646 10.4343C14.846 9.676 15 8.85577 15 7.99952C15 7.14328 14.846 6.32311 14.5646 5.56475L8 4.95605L1.43539 5.56475Z" fill="#F0F0F0"/>
<path d="M8 1C4.99028 1 2.42445 2.89962 1.43542 5.56523H14.5647C13.5756 2.89962 11.0098 1 8 1Z" fill="#D80027"/>
<path d="M8 14.9998C11.0098 14.9998 13.5756 13.1002 14.5646 10.4346H1.43542C2.42445 13.1002 4.99028 14.9998 8 14.9998Z" fill="#6DA544"/>
</g>
<defs>
<clipPath id="clip0_842_55634">
<rect width="14" height="14" fill="white" transform="translate(1 1)"/>
</clipPath>
</defs>
</svg>
