<svg width="16" height="16" viewBox="0 0 16 16" fill="none" xmlns="http://www.w3.org/2000/svg">
<g clip-path="url(#clip0_842_55650)">
<path d="M8.00012 15C11.8661 15 15.0001 11.866 15.0001 8C15.0001 4.13401 11.8661 1 8.00012 1C4.13413 1 1.00012 4.13401 1.00012 8C1.00012 11.866 4.13413 15 8.00012 15Z" fill="#F0F0F0"/>
<path d="M15 8.00015C15 4.9904 13.1004 2.4246 10.4348 1.43555V14.5648C13.1004 13.5757 15 11.0099 15 8.00015Z" fill="#D80027"/>
<path d="M1 8.00015C1 11.0099 2.89962 13.5757 5.56523 14.5648V1.43555C2.89962 2.4246 1 4.9904 1 8.00015Z" fill="#6DA544"/>
</g>
<defs>
<clipPath id="clip0_842_55650">
<rect width="14" height="14" fill="white" transform="translate(1 1)"/>
</clipPath>
</defs>
</svg>
