<svg width="16" height="16" viewBox="0 0 16 16" fill="none" xmlns="http://www.w3.org/2000/svg">
<g clip-path="url(#clip0_842_55812)">
<path d="M8 15C11.866 15 15 11.866 15 8C15 4.13401 11.866 1 8 1C4.13401 1 1 4.13401 1 8C1 11.866 4.13401 15 8 15Z" fill="#F0F0F0"/>
<path d="M10.435 8.0002C10.435 8.6089 9.34488 10.1306 8.0002 10.1306C6.65552 10.1306 5.56543 8.6089 5.56543 8.0002C5.56543 6.65549 6.65552 5.56543 8.0002 5.56543C9.34488 5.56543 10.435 6.65549 10.435 8.0002Z" fill="#D80027"/>
<path d="M10.435 8C10.435 9.34471 9.34488 10.4348 8.0002 10.4348C6.65552 10.4348 5.56543 9.34471 5.56543 8" fill="#0052B4"/>
<path d="M10.5806 10.1523L11.2261 9.50683L11.6564 9.93718L11.0109 10.5827L10.5806 10.1523Z" fill="black"/>
<path d="M9.50439 11.2275L10.1499 10.582L10.5803 11.0124L9.93475 11.6579L9.50439 11.2275Z" fill="black"/>
<path d="M11.8716 11.4434L12.5171 10.7978L12.9474 11.2282L12.3019 11.8737L11.8716 11.4434Z" fill="black"/>
<path d="M10.7954 12.5195L11.4409 11.874L11.8713 12.3044L11.2258 12.9499L10.7954 12.5195Z" fill="black"/>
<path d="M11.2261 10.7979L11.8716 10.1523L12.3019 10.5827L11.6564 11.2282L11.2261 10.7979Z" fill="black"/>
<path d="M10.1504 11.874L10.7959 11.2285L11.2263 11.6589L10.5807 12.3044L10.1504 11.874Z" fill="black"/>
<path d="M11.8745 5.84863L10.1531 4.12725L10.5835 3.6969L12.3049 5.41828L11.8745 5.84863Z" fill="black"/>
<path d="M10.1528 5.41895L9.50731 4.77343L9.93765 4.3431L10.5832 4.98861L10.1528 5.41895Z" fill="black"/>
<path d="M11.229 6.49512L10.5835 5.8496L11.0138 5.41927L11.6593 6.06479L11.229 6.49512Z" fill="black"/>
<path d="M11.4438 4.12793L10.7983 3.48241L11.2287 3.05206L11.8742 3.69758L11.4438 4.12793Z" fill="black"/>
<path d="M12.52 5.2041L11.8745 4.55859L12.3049 4.12824L12.9504 4.77375L12.52 5.2041Z" fill="black"/>
<path d="M3.48145 10.7969L5.20283 12.5183L4.77248 12.9486L3.05109 11.2272L3.48145 10.7969Z" fill="black"/>
<path d="M5.20312 11.2266L5.84864 11.8721L5.41831 12.3024L4.77279 11.6569L5.20312 11.2266Z" fill="black"/>
<path d="M4.12695 10.1504L4.77247 10.7959L4.34212 11.2263L3.6966 10.5807L4.12695 10.1504Z" fill="black"/>
<path d="M4.77246 9.50488L6.49384 11.2263L6.06349 11.6566L4.34211 9.93523L4.77246 9.50488Z" fill="black"/>
<path d="M5.20264 3.48047L3.48126 5.20185L3.05091 4.7715L4.77229 3.05012L5.20264 3.48047Z" fill="black"/>
<path d="M5.84814 4.12598L4.12676 5.84736L3.69641 5.41701L5.41779 3.69563L5.84814 4.12598Z" fill="black"/>
<path d="M6.49463 4.77246L4.77325 6.49384L4.34292 6.06351L6.0643 4.34213L6.49463 4.77246Z" fill="black"/>
</g>
<defs>
<clipPath id="clip0_842_55812">
<rect width="14" height="14" fill="white" transform="translate(1 1)"/>
</clipPath>
</defs>
</svg>
