<svg width="16" height="16" viewBox="0 0 16 16" fill="none" xmlns="http://www.w3.org/2000/svg">
<g clip-path="url(#clip0_842_55742)">
<path d="M8.00025 15C11.8662 15 15.0002 11.866 15.0002 8C15.0002 4.13401 11.8662 1 8.00025 1C4.13425 1 1.00024 4.13401 1.00024 8C1.00024 11.866 4.13425 15 8.00025 15Z" fill="#F0F0F0"/>
<path d="M1.24121 9.82617C1.64623 11.329 2.53886 12.6314 3.7392 13.5537V9.82617H1.24121Z" fill="#D80027"/>
<path d="M7.39136 14.9734C7.59201 14.9907 7.79492 15.0001 8.00006 15.0001C11.2342 15.0001 13.9557 12.8065 14.7589 9.82617H7.39136V14.9734Z" fill="#D80027"/>
<path d="M14.7589 6.1739C13.9557 3.19354 11.2342 1 8.00006 1C7.79492 1 7.59201 1.00935 7.39136 1.02663V6.1739H14.7589Z" fill="#D80027"/>
<path d="M3.7392 2.44629C2.53886 3.36859 1.64623 4.67106 1.24121 6.17384H3.7392V2.44629Z" fill="#D80027"/>
<path d="M14.9407 7.08659H6.47829H6.47827V1.16602C5.83137 1.30946 5.21807 1.54196 4.65217 1.85076V7.08654V7.08657H1.05925C1.02029 7.38546 1 7.69018 1 7.99963C1 8.30908 1.02029 8.6138 1.05925 8.91266H4.65214H4.65217V14.1485C5.21807 14.4572 5.83137 14.6898 6.47827 14.8332V8.91275V8.91269H14.9407C14.9797 8.6138 15 8.30908 15 7.99963C15 7.69018 14.9797 7.38546 14.9407 7.08659Z" fill="#0052B4"/>
</g>
<defs>
<clipPath id="clip0_842_55742">
<rect width="14" height="14" fill="white" transform="translate(1 1)"/>
</clipPath>
</defs>
</svg>
