<svg width="16" height="16" viewBox="0 0 16 16" fill="none" xmlns="http://www.w3.org/2000/svg">
<g clip-path="url(#clip0_842_55766)">
<path d="M10.4348 1.43537C9.67643 1.15403 8.85625 1 8.00001 1C7.14377 0.999973 6.32357 1.15403 5.56524 1.43537L4.95654 7.99997L5.56524 14.5646C6.32354 14.846 7.14374 15 8.00001 15C8.85623 15 9.67646 14.846 10.4348 14.5646L11.0435 8L10.4348 1.43537Z" fill="#FFDA44"/>
<path d="M14.9998 8.00015C14.9998 4.99043 13.1002 2.42457 10.4346 1.43555V14.5648C13.1002 13.5757 14.9998 11.0099 14.9998 8.00015Z" fill="#D80027"/>
<path d="M1 8.0001C1 11.0099 2.89962 13.5756 5.56518 14.5648L5.5652 1.43555C2.89962 2.42457 1 4.99034 1 8.0001H1Z" fill="#0052B4"/>
</g>
<defs>
<clipPath id="clip0_842_55766">
<rect width="14" height="14" fill="white" transform="translate(1 1)"/>
</clipPath>
</defs>
</svg>
