<svg width="16" height="16" viewBox="0 0 16 16" fill="none" xmlns="http://www.w3.org/2000/svg">
<g clip-path="url(#clip0_842_55768)">
<path d="M8 15C11.866 15 15 11.866 15 8C15 4.13401 11.866 1 8 1C4.13401 1 1 4.13401 1 8C1 11.866 4.13401 15 8 15Z" fill="#F0F0F0"/>
<path d="M14.5646 10.435C14.846 9.67665 15 8.85644 15 8.0002C15 7.14396 14.846 6.32375 14.5646 5.56543H1.43539C1.15403 6.32375 1 7.14396 1 8.0002C1 8.85644 1.15403 9.67665 1.43539 10.435L8 11.0437L14.5646 10.435Z" fill="#0052B4"/>
<path d="M8.00015 14.9998C11.0099 14.9998 13.5757 13.1002 14.5648 10.4346H1.43555C2.4246 13.1002 4.9904 14.9998 8.00015 14.9998Z" fill="#D80027"/>
</g>
<defs>
<clipPath id="clip0_842_55768">
<rect width="14" height="14" fill="white" transform="translate(1 1)"/>
</clipPath>
</defs>
</svg>
