<svg width="16" height="16" viewBox="0 0 16 16" fill="none" xmlns="http://www.w3.org/2000/svg">
<g clip-path="url(#clip0_842_55816)">
<path d="M1 8.0005C1 8.85674 1.15403 9.67694 1.43539 10.4353L8 11.044L14.5646 10.4353C14.846 9.67694 15 8.85674 15 8.0005C15 7.14426 14.846 6.32405 14.5646 5.56573L8 4.95703L1.43539 5.56573C1.15403 6.32405 1 7.14426 1 8.0005V8.0005Z" fill="#FFDA44"/>
<path d="M14.5648 5.56523C13.5757 2.89965 11.0099 1 8.00015 1C4.9904 1 2.4246 2.89965 1.43555 5.56523H14.5648Z" fill="#D80027"/>
<path d="M1.43555 10.4346C2.4246 13.1001 4.9904 14.9998 8.00015 14.9998C11.0099 14.9998 13.5757 13.1001 14.5648 10.4346H1.43555Z" fill="#D80027"/>
</g>
<defs>
<clipPath id="clip0_842_55816">
<rect width="14" height="14" fill="white" transform="translate(1 1)"/>
</clipPath>
</defs>
</svg>
