<svg width="16" height="16" viewBox="0 0 16 16" fill="none" xmlns="http://www.w3.org/2000/svg">
<g clip-path="url(#clip0_842_55826)">
<path d="M7.99951 15C11.8655 15 14.9995 11.866 14.9995 8C14.9995 4.13401 11.8655 1 7.99951 1C4.13352 1 0.999512 4.13401 0.999512 8C0.999512 11.866 4.13352 15 7.99951 15Z" fill="#FFDA44"/>
<path d="M6.47805 7.08696H14.9405C14.4931 3.6524 11.5563 1 7.99976 1C7.47711 1 6.968 1.05778 6.47803 1.16639V7.08696H6.47805Z" fill="#0052B4"/>
<path d="M4.652 7.08737V1.85156C2.72989 2.9003 1.35393 4.82396 1.05908 7.0874H4.652V7.08737Z" fill="#0052B4"/>
<path d="M4.65197 8.91309H1.05908C1.35393 11.1765 2.72989 13.1002 4.652 14.1489L4.65197 8.91309Z" fill="#0052B4"/>
<path d="M6.47803 8.91311V14.8337C6.968 14.9423 7.47711 15 7.99976 15C11.5563 15 14.4931 12.3477 14.9405 8.91309H6.47803V8.91311Z" fill="#0052B4"/>
</g>
<defs>
<clipPath id="clip0_842_55826">
<rect width="14" height="14" fill="white" transform="translate(1 1)"/>
</clipPath>
</defs>
</svg>
