<svg width="16" height="16" viewBox="0 0 16 16" fill="none" xmlns="http://www.w3.org/2000/svg">
<g clip-path="url(#clip0_842_55838)">
<path d="M8 15C11.866 15 15 11.866 15 8C15 4.13401 11.866 1 8 1C4.13401 1 1 4.13401 1 8C1 11.866 4.13401 15 8 15Z" fill="#F0F0F0"/>
<path d="M14.5646 5.56543H1.43539C1.154 6.32375 1 7.14396 1 8.0002C1 8.85644 1.154 9.67664 1.43539 10.435H14.5646C14.846 9.67664 15 8.85644 15 8.0002C15 7.14396 14.846 6.32375 14.5646 5.56543Z" fill="#0052B4"/>
<path d="M8.0002 1C5.87857 1 3.97755 1.94402 2.69385 3.43477H13.3065C12.0228 1.94402 10.1218 1 8.0002 1Z" fill="#D80027"/>
<path d="M13.3066 12.5654H2.69385C3.97755 14.0562 5.87857 15.0002 8.0002 15.0002C10.1218 15.0002 12.0229 14.0562 13.3066 12.5654Z" fill="#D80027"/>
</g>
<defs>
<clipPath id="clip0_842_55838">
<rect width="14" height="14" fill="white" transform="translate(1 1)"/>
</clipPath>
</defs>
</svg>
