<svg width="16" height="16" viewBox="0 0 16 16" fill="none" xmlns="http://www.w3.org/2000/svg">
<g clip-path="url(#clip0_842_55848)">
<path d="M8 15C11.866 15 15 11.866 15 8C15 4.13401 11.866 1 8 1C4.13401 1 1 4.13401 1 8C1 11.866 4.13401 15 8 15Z" fill="#D80027"/>
<path d="M7.7135 6.71973L8.28785 7.51119L9.218 7.20959L8.64275 8.00037L9.21702 8.79181L8.2872 8.48906L7.71197 9.27984L7.71257 8.302L6.78271 7.99925L7.71289 7.69765L7.7135 6.71973Z" fill="#F0F0F0"/>
<path d="M6.14583 9.97849C5.05329 9.97849 4.16757 9.09277 4.16757 8.00023C4.16757 6.90768 5.05329 6.02196 6.14583 6.02196C6.48648 6.02196 6.807 6.10812 7.08684 6.25974C6.64784 5.83039 6.04745 5.56543 5.38497 5.56543C4.04025 5.56543 2.9502 6.65552 2.9502 8.0002C2.9502 9.34488 4.04028 10.435 5.38497 10.435C6.0475 10.435 6.64786 10.17 7.08684 9.74066C6.807 9.89233 6.48648 9.97849 6.14583 9.97849Z" fill="#F0F0F0"/>
</g>
<defs>
<clipPath id="clip0_842_55848">
<rect width="14" height="14" fill="white" transform="translate(1 1)"/>
</clipPath>
</defs>
</svg>
