<svg width="24" height="24" viewBox="0 0 24 24" fill="none" xmlns="http://www.w3.org/2000/svg">
<path fill-rule="evenodd" clip-rule="evenodd" d="M3.73758 5.1392C4.11952 4.86626 4.6504 4.95462 4.92334 5.33657L6.80563 7.97054C8.14533 7.34454 9.64004 6.99487 11.2164 6.99487H12.7836C14.3407 6.99487 15.818 7.33601 17.1451 7.94763L19.011 5.33657C19.2839 4.95462 19.8148 4.86626 20.1968 5.1392C20.5787 5.41215 20.6671 5.94303 20.3941 6.32497L18.6337 8.78842C21.3985 10.6645 23.215 13.8333 23.215 17.4263C23.215 18.306 22.5018 19.0192 21.622 19.0192H2.37802C1.49824 19.0192 0.785034 18.306 0.785034 17.4263C0.785034 13.8524 2.58224 10.6984 5.32218 8.81857L3.54021 6.32497C3.26727 5.94303 3.35563 5.41215 3.73758 5.1392ZM2.48568 17.3192H21.5144C21.457 12.5463 17.5701 8.69487 12.7836 8.69487H11.2164C6.42993 8.69487 2.543 12.5463 2.48568 17.3192ZM7.97302 14.6994C7.42074 14.6994 6.97302 14.2517 6.97302 13.6994V13.6911C6.97302 13.1388 7.42074 12.6911 7.97302 12.6911C8.52531 12.6911 8.97302 13.1388 8.97302 13.6911V13.6994C8.97302 14.2517 8.52531 14.6994 7.97302 14.6994ZM14.973 13.6994C14.973 14.2517 15.4207 14.6994 15.973 14.6994C16.5253 14.6994 16.973 14.2517 16.973 13.6994V13.6911C16.973 13.1388 16.5253 12.6911 15.973 12.6911C15.4207 12.6911 14.973 13.1388 14.973 13.6911V13.6994Z" fill="#246AA8"/>
</svg>