<svg width="24" height="24" viewBox="0 0 24 24" fill="none" xmlns="http://www.w3.org/2000/svg">
<path d="M2 14C2 10.2288 2 8.34315 3.17157 7.17157C4.34315 6 6.22876 6 10 6H14C17.7712 6 19.6569 6 20.8284 7.17157C22 8.34315 22 10.2288 22 14C22 17.7712 22 19.6569 20.8284 20.8284C19.6569 22 17.7712 22 14 22H10C6.22876 22 4.34315 22 3.17157 20.8284C2 19.6569 2 17.7712 2 14Z" stroke="#246AA8" stroke-width="1.5" stroke-linecap="round"/>
<path d="M14.6313 14.3015C14.4963 14.7801 13.8584 15.1184 12.5826 15.7949C11.3493 16.4488 10.7327 16.7758 10.2357 16.6444C10.0303 16.59 9.84309 16.4868 9.69212 16.3447C9.32697 16.0008 9.32697 15.3338 9.32697 14C9.32697 12.6662 9.32697 11.9992 9.69212 11.6553C9.84309 11.5132 10.0303 11.41 10.2357 11.3556C10.7327 11.2242 11.3493 11.5512 12.5826 12.2051C13.8584 12.8816 14.4963 13.2199 14.6313 13.6985C14.6869 13.8961 14.6869 14.1039 14.6313 14.3015Z" stroke="#246AA8" stroke-width="1.5" stroke-linejoin="round"/>
<path d="M9 3L12 6L16 2" stroke="#246AA8" stroke-width="1.5" stroke-linecap="round" stroke-linejoin="round"/>
</svg>