<svg width="24" height="24" viewBox="0 0 24 24" fill="none" xmlns="http://www.w3.org/2000/svg">
<path d="M15.0183 9.43334L15.5462 10.498C15.6182 10.6462 15.8102 10.7883 15.9722 10.8155L16.9291 10.9758C17.541 11.0787 17.685 11.5263 17.244 11.9678L16.5001 12.7179C16.3741 12.8449 16.3051 13.0899 16.3441 13.2653L16.5571 14.1938C16.7251 14.9288 16.3381 15.2131 15.6932 14.829L14.7963 14.2937C14.6343 14.1969 14.3674 14.1969 14.2024 14.2937L13.3055 14.829C12.6636 15.2131 12.2736 14.9258 12.4416 14.1938L12.6546 13.2653C12.6935 13.0899 12.6246 12.8449 12.4986 12.7179L11.7547 11.9678C11.3167 11.5263 11.4577 11.0787 12.0696 10.9758L13.0265 10.8155C13.1855 10.7883 13.3775 10.6462 13.4495 10.498L13.9774 9.43334C14.2654 8.85567 14.7333 8.85567 15.0183 9.43334Z" stroke="#246AA8" stroke-width="1.5" stroke-linecap="round" stroke-linejoin="round"/>
<path d="M8 17V20.5" stroke="#246AA8" stroke-width="1.5" stroke-linecap="round" stroke-linejoin="round"/>
<path d="M8 3.5V7" stroke="#246AA8" stroke-width="1.5" stroke-linecap="round" stroke-linejoin="round"/>
<path d="M22 8.87895C21.9331 7.33687 21.7456 6.33298 21.2203 5.53884C20.9181 5.08196 20.5428 4.68459 20.1112 4.36468C18.9447 3.5 17.299 3.5 14.0078 3.5H9.993C6.70173 3.5 5.05609 3.5 3.88957 4.36468C3.458 4.68459 3.08262 5.08196 2.78042 5.53884C2.25521 6.33289 2.06771 7.33665 2.00078 8.87843C1.98933 9.14208 2.21643 9.34375 2.46526 9.34375C3.85104 9.34375 4.97444 10.533 4.97444 12C4.97444 13.467 3.85104 14.6562 2.46526 14.6562C2.21643 14.6562 1.98933 14.8579 2.00078 15.1216C2.06771 16.6634 2.25521 17.6671 2.78042 18.4612C3.08262 18.918 3.458 19.3154 3.88957 19.6353C5.05609 20.5 6.70173 20.5 9.99301 20.5H14.0078C17.299 20.5 18.9447 20.5 20.1112 19.6353C20.5428 19.3154 20.9181 18.918 21.2203 18.4612C21.7456 17.667 21.9331 16.6631 22 15.1211V8.87895Z" stroke="#246AA8" stroke-width="1.5" stroke-linejoin="round"/>
</svg>