<svg width="26" height="24" viewBox="0 0 26 24" fill="none" xmlns="http://www.w3.org/2000/svg">
<mask id="path-1-outside-1_216_9" maskUnits="userSpaceOnUse" x="4.68994" y="0.349998" width="17" height="18" fill="black">
<rect fill="white" x="4.68994" y="0.349998" width="17" height="18"/>
<path d="M19.3799 16.2886C19.5999 15.6732 19.4699 14.1143 19.1199 13.1501C18.6899 11.9809 17.9299 10.9552 17.3499 10.2578C16.6999 9.42701 16.0699 8.627 16.0799 7.45776C16.0999 5.67312 16.2699 2.35 13.1999 2.35C13.0799 2.35 12.9499 2.35 12.8099 2.37051C9.37994 2.65769 10.2899 6.37056 10.2399 7.6116C10.1799 8.52444 9.99994 9.24239 9.38994 10.1245C8.66994 10.9963 7.65994 12.4117 7.18994 13.8886C6.93994 14.6578 6.88994 15.9502 6.68994 16.6066"/>
</mask>
<path d="M17.9675 15.7837C17.6886 16.5638 18.0949 17.4222 18.875 17.7011C19.6551 17.98 20.5135 17.5737 20.7924 16.7936L17.9675 15.7837ZM19.1199 13.1501L20.5299 12.6383L20.5278 12.6324L19.1199 13.1501ZM17.3499 10.2578L16.1686 11.1821C16.1777 11.1938 16.1871 11.2054 16.1966 11.2169L17.3499 10.2578ZM16.0799 7.45776L14.58 7.44095L14.58 7.44493L16.0799 7.45776ZM12.8099 2.37051L12.9351 3.86528C12.966 3.8627 12.9968 3.85916 13.0274 3.85466L12.8099 2.37051ZM10.2399 7.6116L11.7367 7.70999C11.7375 7.69733 11.7382 7.68466 11.7387 7.67199L10.2399 7.6116ZM9.38994 10.1245L10.5465 11.0796C10.5737 11.0467 10.5994 11.0127 10.6237 10.9776L9.38994 10.1245ZM7.18994 13.8886L8.61652 14.3522L8.61931 14.3435L7.18994 13.8886ZM5.25506 16.1694C5.01362 16.9619 5.4603 17.8 6.25276 18.0415C7.04522 18.2829 7.88337 17.8362 8.12482 17.0438L5.25506 16.1694ZM20.7924 16.7936C21.0178 16.163 21.0097 15.3424 20.9585 14.7261C20.9022 14.0477 20.7625 13.2789 20.5299 12.6383L17.71 13.662C17.8274 13.9854 17.9277 14.4783 17.9688 14.9743C17.9888 15.2151 17.9924 15.428 17.9835 15.5939C17.9734 15.7815 17.9515 15.8283 17.9675 15.7837L20.7924 16.7936ZM20.5278 12.6324C20.0086 11.2208 19.1178 10.0377 18.5033 9.29869L16.1966 11.2169C16.742 11.8727 17.3713 12.741 17.7121 13.6679L20.5278 12.6324ZM18.5313 9.33348C17.8387 8.44818 17.575 8.04264 17.5799 7.47058L14.58 7.44493C14.5649 9.21136 15.5612 10.4058 16.1686 11.1821L18.5313 9.33348ZM17.5798 7.47457C17.5888 6.67887 17.6573 5.11497 17.2267 3.77561C16.9999 3.0699 16.604 2.31315 15.8969 1.7355C15.1708 1.14227 14.2537 0.849998 13.1999 0.849998V3.85C13.6812 3.85 13.8941 3.97312 13.9989 4.05874C14.1228 4.15995 14.2587 4.34551 14.3707 4.69366C14.6176 5.46202 14.5911 6.452 14.58 7.44095L17.5798 7.47457ZM13.1999 0.849998C13.0892 0.849998 12.8555 0.847825 12.5925 0.886358L13.0274 3.85466C13.0316 3.85404 13.0442 3.85248 13.0716 3.8514C13.1025 3.85018 13.1362 3.85 13.1999 3.85V0.849998ZM12.6848 0.875742C11.5385 0.971716 10.5901 1.37562 9.89458 2.08871C9.22012 2.7802 8.91898 3.62415 8.78257 4.35993C8.64692 5.09162 8.65562 5.81863 8.6819 6.37968C8.71344 7.05325 8.75033 7.32365 8.74116 7.55122L11.7387 7.67199C11.7546 7.27904 11.6964 6.61994 11.6786 6.23933C11.6555 5.7462 11.6605 5.29434 11.7323 4.90679C11.8034 4.52332 11.921 4.30765 12.0422 4.18342C12.1423 4.08079 12.3664 3.9129 12.9351 3.86528L12.6848 0.875742ZM8.74317 7.51322C8.69716 8.21328 8.58187 8.65577 8.15622 9.27126L10.6237 10.9776C11.418 9.82902 11.6627 8.83559 11.7367 7.70999L8.74317 7.51322ZM8.23338 9.16928C7.47376 10.0891 6.3181 11.6818 5.76057 13.4337L8.61931 14.3435C9.00178 13.1416 9.86612 11.9035 10.5465 11.0796L8.23338 9.16928ZM5.76339 13.425C5.58916 13.9611 5.49942 14.6171 5.4351 15.0861C5.35723 15.6539 5.31081 15.9864 5.25506 16.1694L8.12482 17.0438C8.26907 16.5703 8.34765 15.9285 8.40728 15.4937C8.48047 14.9601 8.54072 14.5854 8.61649 14.3522L5.76339 13.425Z" fill="#246AA8" mask="url(#path-1-outside-1_216_9)"/>
<path d="M10.99 20.73C11.47 20.73 12.16 20.52 13 20.48C13.73 20.48 14.1 20.69 14.92 20.64" stroke="#246AA8" stroke-width="1.5" stroke-linecap="round" stroke-linejoin="round"/>
<path d="M20.9499 18.85C20.9399 19.05 20.7999 19.19 20.5399 19.35C20.0199 19.67 19.0899 19.94 18.4999 20.66C17.9899 21.27 17.3599 21.61 16.8099 21.65C16.2599 21.69 15.7799 21.46 15.4999 20.9C15.3299 20.57 15.3999 20.05 15.5399 19.5C15.6899 18.95 15.8999 18.38 15.9299 17.92C15.9599 17.33 15.9899 16.82 16.0899 16.42C16.1899 16.02 16.3599 15.75 16.6199 15.6C16.7999 15.47 16.8799 15.64 16.8799 15.67C17.2199 16.07 17.2299 16.61 17.6599 16.72C18.0899 16.83 18.9399 16.09 19.0499 16.09C19.9499 15.9 20.2899 16.47 20.2299 17.02C20.1899 17.33 20.2099 17.66 20.4199 17.9C20.8299 18.35 20.9599 18.66 20.9499 18.86V18.85Z" fill="white" stroke="#246AA8" stroke-width="1.5" stroke-miterlimit="10"/>
<path d="M10.7599 20.9C10.6199 21.28 10.3099 21.5 9.87995 21.6C9.32995 21.72 8.57995 21.6 7.83995 21.22C7.00995 20.79 6.02995 20.83 5.39995 20.71C5.08995 20.65 4.87995 20.55 4.78995 20.37C4.69995 20.19 4.68995 19.88 4.88995 19.34C4.98995 19.04 4.91995 18.71 4.86995 18.41C4.81995 18.1 4.79995 17.82 4.90995 17.63C5.04995 17.37 5.24995 17.28 5.49995 17.19C5.74995 17.1 6.04995 17.03 6.27995 16.8C6.49995 16.58 6.65995 16.3 6.84995 16.1C7.00995 15.93 7.16995 15.82 7.40995 15.82C7.44995 15.82 7.49995 15.82 7.53995 15.83C7.85995 15.88 8.13995 16.1 8.40995 16.46L9.18995 17.85C9.39995 18.27 9.83995 18.74 10.2099 19.22C10.9599 20.16 10.7899 20.82 10.7499 20.93L10.7599 20.9Z" fill="white" stroke="#246AA8" stroke-width="1.5" stroke-miterlimit="10"/>
<path d="M14.74 7.64C14.69 7.54 14.58 7.44 14.4 7.37C14.02 7.21 13.86 7.2 13.65 7.06C13.31 6.84 13.02 6.76 12.79 6.76C12.67 6.76 12.56 6.78 12.46 6.82C12.17 6.92 11.98 7.13 11.86 7.24C11.86 7.24 11.81 7.28 11.73 7.34C11.66 7.39 11.55 7.48 11.39 7.59C11.25 7.7 11.2 7.83 11.25 8C11.3 8.16 11.45 8.35 11.74 8.51C11.92 8.61 12.04 8.75 12.18 8.87C12.25 8.93 12.32 8.98 12.41 9.01C12.5 9.05 12.6 9.07 12.73 9.08C13.03 9.1 13.25 9.01 13.45 8.89C13.65 8.78 13.81 8.64 14 8.58C14.39 8.46 14.67 8.21 14.76 7.98C14.8 7.86 14.8 7.75 14.76 7.65L14.74 7.64Z" fill="#246AA8"/>
</svg>