<svg width="24" height="24" viewBox="0 0 24 24" fill="none" xmlns="http://www.w3.org/2000/svg">
<path d="M18.6132 2.0802C18.6132 1.90481 18.5435 1.7366 18.4195 1.61258C18.2955 1.48856 18.1272 1.41888 17.9519 1.41888H13.9839C13.8085 1.41888 13.6403 1.48856 13.5163 1.61258C13.3923 1.7366 13.3226 1.90481 13.3226 2.0802V8.5661L10.6301 1.83452C10.581 1.71182 10.4962 1.60664 10.3868 1.53255C10.2773 1.45847 10.1482 1.41888 10.016 1.41888L6.04512 1.41888C6.00418 1.41898 5.96334 1.42286 5.92311 1.43046C5.9155 1.43211 5.90889 1.43509 5.90162 1.43674C5.88872 1.43939 5.87649 1.44368 5.86392 1.44732C5.82813 1.45769 5.79329 1.47107 5.75976 1.48733C5.74885 1.49262 5.73794 1.49725 5.7267 1.5032C5.68545 1.52602 5.64677 1.55318 5.6113 1.58421C5.60601 1.58884 5.60138 1.59446 5.59642 1.59909C5.56604 1.62794 5.53847 1.6596 5.51408 1.69366C5.51012 1.69928 5.50416 1.70325 5.50053 1.7092C5.49689 1.71516 5.49557 1.71978 5.49259 1.72474C5.4405 1.80553 5.40665 1.89671 5.39339 1.99192C5.39339 2.00547 5.39108 2.01936 5.39009 2.03325C5.38909 2.04714 5.38678 2.06433 5.38678 2.0802V21.9198C5.38678 22.0952 5.45645 22.2634 5.58048 22.3874C5.7045 22.5114 5.87271 22.5811 6.0481 22.5811H10.016C10.1914 22.5811 10.3596 22.5114 10.4836 22.3874C10.6077 22.2634 10.6773 22.0952 10.6773 21.9198V15.4339L13.3699 22.1655C13.419 22.2882 13.5037 22.3934 13.6132 22.4674C13.7226 22.5415 13.8518 22.5811 13.9839 22.5811H17.9519C17.9935 22.5812 18.035 22.5773 18.0759 22.5695C18.0835 22.5695 18.0901 22.5649 18.0973 22.5633C18.1102 22.5603 18.1225 22.5563 18.135 22.5527C18.1708 22.5423 18.2057 22.5289 18.2392 22.5127C18.2501 22.5074 18.261 22.5027 18.2723 22.4968C18.3137 22.474 18.3526 22.4469 18.3883 22.4158C18.3936 22.4112 18.3982 22.4055 18.4032 22.4009C18.4336 22.3721 18.4612 22.3404 18.4855 22.3063C18.4895 22.3007 18.4955 22.2967 18.4991 22.2908C18.5027 22.2848 18.5041 22.2802 18.507 22.2753C18.5591 22.1945 18.593 22.1033 18.6062 22.0081C18.6079 21.9945 18.6085 21.9806 18.6095 21.9667C18.6105 21.9529 18.6132 21.9357 18.6132 21.9198V2.0802ZM14.6453 2.74152H17.2905V18.4859L14.6453 11.8727V2.74152ZM9.3547 21.2585H6.70942V5.51411L9.3547 12.1273V21.2585ZM14.4317 21.2585L7.02487 2.74152H9.5683L16.9751 21.2585H14.4317Z" fill="#246AA8"/>
</svg>