<svg width="24" height="24" viewBox="0 0 24 24" fill="none" xmlns="http://www.w3.org/2000/svg">
<path fill-rule="evenodd" clip-rule="evenodd" d="M1.25012 12C1.25012 17.928 6.07213 22.75 12.0001 22.75C17.9281 22.75 22.7501 17.928 22.7501 12C22.7501 6.07199 17.9281 1.24999 12.0001 1.24999C6.07213 1.24999 1.25012 6.07199 1.25012 12ZM12.0001 21.25C6.90056 21.25 2.75012 17.0995 2.75012 12C2.75012 6.90042 6.90056 2.74999 12.0001 2.74999C17.0997 2.74999 21.2501 6.90042 21.2501 12C21.2501 17.0995 17.0997 21.25 12.0001 21.25Z" fill="#246AA8"/>
<path fill-rule="evenodd" clip-rule="evenodd" d="M11.9999 22.75C12.4141 22.75 12.7499 22.4142 12.7499 22V2C12.7499 1.58579 12.4141 1.25 11.9999 1.25C11.5857 1.25 11.2499 1.58579 11.2499 2V22C11.2499 22.4142 11.5857 22.75 11.9999 22.75Z" fill="#246AA8"/>
<path fill-rule="evenodd" clip-rule="evenodd" d="M7.79339 19.4065C8.73808 21.2958 10.1819 22.75 11.9998 22.75C13.8176 22.75 15.2614 21.2958 16.2061 19.4065C17.1732 17.4722 17.7498 14.8526 17.7498 12C17.7498 9.1474 17.1732 6.52777 16.2061 4.59353C15.2614 2.70415 13.8176 1.25 11.9998 1.25C10.1819 1.25 8.73808 2.70415 7.79339 4.59353C6.82628 6.52777 6.24976 9.1474 6.24976 12C6.24976 14.8526 6.82628 17.4722 7.79339 19.4065ZM9.13503 18.7357C8.29251 17.0506 7.74976 14.6702 7.74976 12C7.74976 9.32977 8.29251 6.94941 9.13503 5.26435C9.99999 3.53443 11.0562 2.75 11.9998 2.75C12.9434 2.75 13.9995 3.53443 14.8645 5.26435C15.707 6.94941 16.2498 9.32977 16.2498 12C16.2498 14.6702 15.707 17.0506 14.8645 18.7357C13.9995 20.4656 12.9434 21.25 11.9998 21.25C11.0562 21.25 9.99999 20.4656 9.13503 18.7357Z" fill="#246AA8"/>
<path fill-rule="evenodd" clip-rule="evenodd" d="M1.82092 15.3328C1.82092 15.7471 2.15671 16.0828 2.57092 16.0828H21.4285C21.8427 16.0828 22.1785 15.7471 22.1785 15.3328C22.1785 14.9186 21.8427 14.5828 21.4285 14.5828H2.57092C2.15671 14.5828 1.82092 14.9186 1.82092 15.3328Z" fill="#246AA8"/>
<path fill-rule="evenodd" clip-rule="evenodd" d="M1.82092 8.66718C1.82092 9.08139 2.15671 9.41718 2.57092 9.41718H21.4285C21.8427 9.41718 22.1785 9.08139 22.1785 8.66718C22.1785 8.25296 21.8427 7.91718 21.4285 7.91718H2.57092C2.15671 7.91718 1.82092 8.25296 1.82092 8.66718Z" fill="#246AA8"/>
</svg>