<svg width="24" height="24" viewBox="0 0 24 24" fill="none" xmlns="http://www.w3.org/2000/svg">
<path d="M18.4754 17.3504L18.4801 17.3414L18.4845 17.3323L22.3124 9.43544C22.4063 9.26671 22.474 9.06267 22.474 8.84085C22.474 8.22769 21.9441 7.84696 21.4605 7.84696H20.2935C20.0542 7.84696 19.7971 7.90461 19.5703 8.07416C19.3594 8.23179 19.2455 8.43398 19.1794 8.59031L18.1199 10.9292L16.5696 8.53167L16.5691 8.5309C16.4577 8.35922 16.3017 8.16967 16.0661 8.03268C15.8253 7.89267 15.57 7.84696 15.3255 7.84696H13.92C13.6844 7.84696 13.4503 7.88609 13.2245 7.99607C13.0086 8.10121 12.851 8.24681 12.7306 8.37908L11.4829 9.68668V6.18092C11.4829 5.90484 11.3776 5.62935 11.1621 5.42549C10.9492 5.22405 10.6776 5.13793 10.4195 5.13793H9.52869C9.24593 5.13793 8.85219 5.18347 8.53095 5.45849C8.1839 5.7556 8.08843 6.17096 8.08843 6.5351V7.89594C7.97829 7.86198 7.86645 7.84696 7.75974 7.84696H4.50973C3.63605 7.84696 2.88158 8.09561 2.33723 8.59187C1.78808 9.09251 1.52643 9.77915 1.52643 10.5007C1.52643 11.1494 1.74548 11.7327 2.19555 12.1865C2.34946 12.3418 2.52354 12.475 2.71382 12.5887C2.44449 12.6416 2.19202 12.7651 1.99229 12.9798C1.72266 13.2696 1.63943 13.629 1.63943 13.9299V14.5278C1.63943 14.7039 1.67272 14.9687 1.8554 15.2035C2.06372 15.4713 2.36264 15.5708 2.62761 15.5708H5.86471C6.80291 15.5708 7.58589 15.3524 8.15335 14.8963C8.29679 15.2889 8.66212 15.5708 9.08909 15.5708H10.0806C10.7553 15.5708 11.4829 15.0775 11.4829 14.1859V13.6298L12.4306 14.9625L12.4305 14.9625L12.4369 14.9711L12.44 14.9754C12.563 15.1433 12.8762 15.5708 13.4682 15.5708H14.7731C15.0184 15.5708 15.2564 15.4896 15.4455 15.3425C15.6285 15.2001 15.8242 14.9425 15.8242 14.589C15.8242 14.2764 15.6864 14.0438 15.5433 13.8552L14.0072 11.6291L14.4255 11.1947L16.5253 14.2443L15.4234 16.4182C15.423 16.4189 15.4226 16.4197 15.4223 16.4204C15.352 16.5573 15.2778 16.7379 15.2778 17.0051C15.2778 17.3305 15.4349 17.5862 15.6158 17.7453C15.7864 17.8952 16.0211 17.9993 16.2788 17.9993H17.4331C17.7213 17.9993 17.9819 17.9086 18.1875 17.7307C18.3565 17.5844 18.445 17.4101 18.4712 17.3586C18.4729 17.3554 18.4743 17.3526 18.4754 17.3504ZM8.08843 10.719V11.001C8.00146 10.9359 7.91 10.876 7.81452 10.8209C7.90921 10.7963 8.00101 10.7626 8.08843 10.719Z" stroke="#246AA8" stroke-width="1.5"/>
</svg>